#!OML:ASF I:\golf\golf\golf 2\Subject 1\2002-09-07\Subject1.ASF
:FULLY-SPECIFIED
:DEGREES
340
root -5.47121 18.1012 0.571563 -179.416 40.1186 -185.123
lowerback -7.13069 -3.18389 3.54881
upperback 0.761384 -3.75328 14.9186
thorax 5.69407 -1.43034 14.1184
lowerneck -6.90288 -13.7097 -4.44272
upperneck 29.9417 -13.3082 -12.2754
head 10.1339 -7.12765 -4.83487
rclavicle -6.59965e-014 -5.40694e-014
rhumerus 0.171731 8.28345 -96.2577
rradius 21.7292
rwrist -44.6801
rhand -14.9956 -14.7268
rfingers 7.12502
rthumb 11.169 -44.4096
lclavicle -6.59965e-014 -5.40694e-014
lhumerus 2.69443 -46.0668 105.186
lradius 16.0825
lwrist 37.0811
lhand 3.66554 68.1609
lfingers 7.12502
lthumb -150.904 -275.908
rfemur -5.09934 -1.17447 4.19513
rtibia 42.5466
rfoot 3.03432 -24.3926
rtoes 15.4849
lfemur -11.6941 -0.567015 -24.7745
ltibia 9.34827
lfoot 4.80917 -30.4082
ltoes 16.9096
341
root -5.44799 18.0925 0.526549 -179.638 38.5133 -184.748
lowerback -7.25745 -2.89132 3.72291
upperback 0.441748 -3.23966 15.1841
thorax 5.31064 -1.10916 14.4038
lowerneck -6.4758 -14.3975 -4.84059
upperneck 30.0419 -14.268 -11.9437
head 10.1126 -7.53396 -4.72077
rclavicle -1.43125e-014 1.145e-013
rhumerus 1.37742 11.6199 -96.774
rradius 20.8712
rwrist -41.2041
rhand -13.214 -15.2795
rfingers 7.12502
rthumb 12.8869 -44.8616
lclavicle -1.43125e-014 1.145e-013
lhumerus 2.01643 -43.8233 104.971
lradius 17.6076
lwrist 44.4925
lhand -0.0560272 66.9213
lfingers 7.12502
lthumb -154.463 -275.23
rfemur -3.85856 -1.501 4.49358
rtibia 42.3096
rfoot 3.73452 -24.2066
rtoes 16.7105
lfemur -11.1728 -1.43214 -24.6566
ltibia 9.57145
lfoot 5.61513 -30.6782
ltoes 19.0434
342
root -5.4155 18.0841 0.481455 -179.955 37.3589 -184.436
lowerback -7.50058 -2.33547 4.07645
upperback 0.304868 -2.45668 15.2009
thorax 5.10439 -0.664988 14.3022
lowerneck -6.02522 -15.1538 -5.02159
upperneck 30.0583 -15.4407 -11.4288
head 10.0472 -8.00343 -4.58502
rclavicle -2.76311e-014 -1.36764e-013
rhumerus 2.82111 15.3837 -97.1512
rradius 20.355
rwrist -36.9504
rhand -11.3762 -15.3101
rfingers 7.12502
rthumb 14.658 -44.7721
lclavicle -2.76311e-014 -1.36764e-013
lhumerus 1.49028 -42.2072 104.352
lradius 19.4707
lwrist 50.11
lhand -2.26359 65.4522
lfingers 7.12502
lthumb -156.579 -274.047
rfemur -2.66704 -1.46035 4.75616
rtibia 42.0336
rfoot 4.33648 -24.0461
rtoes 18.4916
lfemur -10.5799 -1.84372 -24.5871
ltibia 9.84002
lfoot 5.84917 -31.1763
ltoes 20.2261
343
root -5.37908 18.0752 0.435265 -180.348 36.4656 -184.301
lowerback -7.86373 -1.6346 4.42333
upperback 0.286754 -1.54369 15.0548
thorax 5.07168 -0.175793 14.0249
lowerneck -5.7178 -15.9404 -5.05249
upperneck 30.0622 -16.696 -10.8745
head 9.99738 -8.49968 -4.4762
rclavicle 8.44586e-014 -1.04958e-013
rhumerus 4.81222 18.5771 -97.4108
rradius 19.7367
rwrist -31.4762
rhand -7.94711 -14.5437
rfingers 7.12502
rthumb 17.9597 -43.7345
lclavicle 8.44586e-014 -1.04958e-013
lhumerus 1.06492 -40.6776 103.542
lradius 21.6738
lwrist 53.8997
lhand -3.16217 64.3891
lfingers 7.12502
lthumb -157.442 -273.091
rfemur -1.56725 -1.3886 4.81574
rtibia 41.7338
rfoot 5.56337 -23.8534
rtoes 19.2051
lfemur -10.1101 -1.99699 -24.6545
ltibia 10.3214
lfoot 5.59979 -31.862
ltoes 20.8358
344
root -5.34929 18.0649 0.384131 -180.747 35.5535 -184.128
lowerback -8.1044 -0.955523 4.80582
upperback 0.257296 -0.638478 14.9542
thorax 4.97376 0.313807 13.7819
lowerneck -5.32321 -16.719 -5.05191
upperneck 29.9449 -17.9477 -10.3476
head 9.89048 -8.9949 -4.36231
rclavicle -9.30312e-014 1.08139e-013
rhumerus 6.93688 22.8919 -96.9795
rradius 19.9121
rwrist -27.8344
rhand -5.44887 -14.9942
rfingers 7.12502
rthumb 20.3621 -43.9467
lclavicle -9.30312e-014 1.08139e-013
lhumerus 0.892019 -39.2281 102.68
lradius 23.9458
lwrist 56.5809
lhand -5.79661 63.3885
lfingers 7.12502
lthumb -159.972 -272.376
rfemur -0.4213 -1.42444 4.84128
rtibia 41.4241
rfoot 6.02047 -23.5271
rtoes 19.7574
lfemur -9.69736 -2.62065 -24.6579
ltibia 10.9522
lfoot 5.10777 -32.1191
ltoes 21.2077
345
root -5.32867 18.0538 0.334817 -180.891 34.4696 -183.777
lowerback -8.14474 -0.416773 5.1473
upperback 0.0439627 0.174279 15.0353
thorax 4.59418 0.779485 13.7593
lowerneck -4.88559 -17.4638 -5.13432
upperneck 29.791 -19.1135 -9.88765
head 9.77809 -9.46433 -4.24603
rclavicle -5.56597e-015 -1.145e-013
rhumerus 9.05029 28.301 -95.702
rradius 20.6815
rwrist -25.847
rhand -3.97523 -14.6081
rfingers 7.12502
rthumb 21.7777 -43.4029
lclavicle -5.56597e-015 -1.145e-013
lhumerus 1.22909 -36.9351 102.072
lradius 25.3447
lwrist 57.7636
lhand -8.60393 61.7908
lfingers 7.12502
lthumb -162.672 -271.038
rfemur 0.588616 -1.64532 5.0283
rtibia 41.1232
rfoot 5.88924 -22.9317
rtoes 18.6
lfemur -9.5347 -3.42753 -24.5186
ltibia 11.6703
lfoot 4.59802 -32.3459
ltoes 21.4021
346
root -5.30909 18.0441 0.291274 -180.89 33.2888 -183.406
lowerback -7.96014 0.0437993 5.31163
upperback -0.35897 0.98281 15.1972
thorax 3.88503 1.25822 13.9124
lowerneck -4.43368 -18.1898 -5.2712
upperneck 29.6614 -20.2035 -9.53832
head 9.67709 -9.91269 -4.15243
rclavicle -6.24184e-014 1.87653e-013
rhumerus 11.269 33.2692 -93.9612
rradius 21.3846
rwrist -24.6173
rhand -2.97287 -11.6446
rfingers 7.12502
rthumb 22.74 -40.3245
lclavicle -6.24184e-014 1.87653e-013
lhumerus 1.50461 -34.6418 101.625
lradius 26.8174
lwrist 58.5094
lhand -9.49815 59.9634
lfingers 7.12502
lthumb -163.533 -450.715
rfemur 1.48448 -2.00599 5.27878
rtibia 40.817
rfoot 7.20404 -22.1969
rtoes 16.0511
lfemur -9.61689 -3.9591 -24.3368
ltibia 12.5347
lfoot 4.51485 -32.8731
ltoes 22.1433
347
root -5.28959 18.0345 0.246532 -180.964 32.1715 -183.043
lowerback -7.74589 0.520567 5.57199
upperback -0.712003 1.79344 15.2743
thorax 3.2169 1.73282 13.8901
lowerneck -3.84506 -18.9064 -5.3507
upperneck 29.3903 -21.3149 -9.13853
head 9.50611 -10.3657 -4.02491
rclavicle -4.69132e-014 -1.145e-013
rhumerus 13.6699 35.7787 -92.6099
rradius 22.3994
rwrist -20.3832
rhand -0.21921 -10.6627
rfingers 7.12502
rthumb 25.3804 -38.9934
lclavicle -4.69132e-014 -1.145e-013
lhumerus 1.92873 -33.0947 100.861
lradius 28.4801
lwrist 59.2152
lhand -10.1322 57.6501
lfingers 7.12502
lthumb -164.144 -452.979
rfemur 2.44483 -2.40206 5.48883
rtibia 40.507
rfoot 8.75549 -21.6989
rtoes 16.8447
lfemur -9.66638 -4.3125 -24.1551
ltibia 13.4544
lfoot 4.66668 -33.5067
ltoes 23.2886
348
root -5.27009 18.0252 0.196461 -181.003 31.1688 -182.676
lowerback -7.67007 1.00369 5.98694
upperback -0.987578 2.54831 15.2481
thorax 2.73724 2.16427 13.6465
lowerneck -3.30634 -19.5758 -5.32911
upperneck 29.1058 -22.3937 -8.64243
head 9.34696 -10.7904 -3.88021
rclavicle 1.74931e-014 -9.54166e-014
rhumerus 16.2965 39.774 -90.549
rradius 24.2799
rwrist -21.1451
rhand -1.94765 -9.26599
rfingers 7.12502
rthumb 23.7236 -37.8218
lclavicle 1.74931e-014 -9.54166e-014
lhumerus 2.58596 -32.0415 99.6004
lradius 30.2999
lwrist 60.1608
lhand -10.389 55.609
lfingers 7.12502
lthumb -164.391 -455.001
rfemur 3.32543 -2.80393 5.64525
rtibia 40.2037
rfoot 9.34676 -21.3533
rtoes 17.8158
lfemur -9.7091 -4.69543 -23.9642
ltibia 14.295
lfoot 4.83929 -34.0573
ltoes 24.5172
349
root -5.2515 18.0175 0.142783 -180.99 30.3019 -182.379
lowerback -7.62236 1.51511 6.37551
upperback -1.25234 3.33098 15.188
thorax 2.29258 2.60147 13.3792
lowerneck -2.92797 -20.2101 -5.28745
upperneck 28.9307 -23.4008 -8.15952
head 9.25963 -11.1805 -3.76285
rclavicle 3.33958e-014 7.95139e-014
rhumerus 19.0399 41.5972 -88.9099
rradius 25.3727
rwrist -18.5974
rhand -1.86034 -7.59062
rfingers 7.12502
rthumb 23.8073 -36.1355
lclavicle 3.33958e-014 7.95139e-014
lhumerus 3.90487 -27.7659 98.6319
lradius 29.167
lwrist 51.3127
lhand 4.37855 51.789
lfingers 7.12502
lthumb -150.223 -460.584
rfemur 4.04133 -3.07363 5.75297
rtibia 39.9132
rfoot 9.83806 -20.8669
rtoes 16.7611
lfemur -9.79821 -5.05049 -23.8275
ltibia 15.0458
lfoot 4.93364 -34.5275
ltoes 25.4303
